Coordinates
version=1
nRows=24
nColumns=24
inDegrees=yes

Units are S.I. units (second, meters, Newtons, ...)
Angles are in degrees.

endheader
time	pelvis_tilt	pelvis_list	pelvis_rotation	pelvis_tx	pelvis_ty	pelvis_tz	hip_flexion_r	hip_adduction_r	hip_rotation_r	knee_angle_r	ankle_angle_r	subtalar_angle_r	mtp_angle_r	hip_flexion_l	hip_adduction_l	hip_rotation_l	knee_angle_l	ankle_angle_l	subtalar_angle_l	mtp_angle_l	lumbar_extension	lumbar_bending	lumbar_rotation
      4.00000000	     -6.16576382	      4.10663771	     -4.13118579	     -1.38285999	     -0.00281652	     -0.29236736	     32.71268181	     -4.28680281	     -1.01705124	    -45.28311872	     -1.58499798	     -8.40343817	     21.12069341	     -1.53000089	      8.43598178	     -7.52273607	     -3.38990367	      7.32751582	     -5.27938826	      6.84447915	      0.03964221	     -3.91419306	     -2.01714760
      4.00500000	     -6.16408885	      4.07989419	     -3.97126163	     -1.37692126	     -0.00348277	     -0.29267403	     32.95812318	     -4.22258455	     -1.23131509	    -43.79210471	     -1.42179024	     -8.32305618	     21.01569493	     -2.01802855	      8.48452846	     -7.51249154	     -3.23495192	      7.53822029	     -5.19497685	      6.92539546	     -0.04352315	     -3.87199584	     -2.29261790
      4.01000000	     -6.12780490	      4.06104511	     -3.79524606	     -1.37096529	     -0.00416058	     -0.29297312	     33.13808703	     -4.17644372	     -1.44471433	    -42.26266977	     -1.30458308	     -8.22733406	     20.88008380	     -2.53774245	      8.53995833	     -7.52533296	     -3.09290826	      7.74146217	     -5.07998760	      7.03502369	     -0.16607839	     -3.84768994	     -2.59722060
      4.01500000	     -6.02662664	      4.05131361	     -3.63270916	     -1.36502469	     -0.00482170	     -0.29322156	     33.22719335	     -4.13387564	     -1.63564911	    -40.70115569	     -1.23080860	     -8.12637177	     20.65287580	     -3.12088615	      8.60454013	     -7.59542701	     -2.95897015	      7.92895989	     -4.92981419	      7.22391064	     -0.36038853	     -3.83934190	     -2.89845230
      4.02000000	     -6.01973511	      4.03769184	     -3.45418089	     -1.35899924	     -0.00563978	     -0.29347837	     33.38886018	     -4.08922761	     -1.81712061	    -39.11356413	     -1.17741878	     -7.95329745	     20.47593758	     -3.59755788	      8.65145350	     -7.59683413	     -2.85445417	      8.16025143	     -4.79681519	      7.38772475	     -0.44220482	     -3.81683713	     -3.15903107
      4.02500000	     -5.93730741	      4.00675765	     -3.27673441	     -1.35300429	     -0.00638488	     -0.29371039	     33.43369330	     -4.03439700	     -2.00055595	    -37.48039335	     -1.18573339	     -7.76915748	     20.23826122	     -4.14283440	      8.67758773	     -7.64204041	     -2.77369438	      8.38641760	     -4.62574361	      7.59041330	     -0.61488298	     -3.78456498	     -3.45495709
      4.03000000	     -5.88945090	      3.97060191	     -3.11990773	     -1.34703329	     -0.00720007	     -0.29394538	     33.49416992	     -3.96155035	     -2.12980245	    -35.82005136	     -1.24682123	     -7.52600909	     20.00623843	     -4.62382616	      8.69631573	     -7.70724504	     -2.73997432	      8.63195704	     -4.50991666	      7.78044333	     -0.75438404	     -3.73302111	     -3.70867027
      4.03500000	     -5.79300387	      3.90369682	     -2.95848655	     -1.34103187	     -0.00794110	     -0.29413673	     33.45474537	     -3.87700621	     -2.32546267	    -34.10829513	     -1.34926130	     -7.25777931	     19.72864012	     -5.16016587	      8.66960629	     -7.76388075	     -2.71419101	      8.87769821	     -4.31579277	      8.00542871	     -0.94301329	     -3.66075046	     -3.96186282
      4.04000000	     -5.63602277	      3.81811236	     -2.82936176	     -1.33507723	     -0.00859319	     -0.29423323	     33.31817859	     -3.76669595	     -2.53402589	    -32.35833436	     -1.49995979	     -6.94370448	     19.36300218	     -5.75023488	      8.61377385	     -7.87606995	     -2.70304591	      9.09761298	     -4.06108904	      8.30597276	     -1.20519009	     -3.58429665	     -4.19921294
      4.04500000	     -5.59123648	      3.71174348	     -2.70720471	     -1.32911604	     -0.00936237	     -0.29439231	     33.26874320	     -3.64129045	     -2.73916010	    -30.57591412	     -1.68921041	     -6.50147683	     19.08986934	     -6.18891925	      8.53144562	     -7.94931820	     -2.75096867	      9.35072243	     -3.90668318	      8.54069642	     -1.34749959	     -3.45750343	     -4.34921430
      4.05000000	     -5.42677733	      3.56725338	     -2.58930749	     -1.32321518	     -0.00996885	     -0.29450228	     33.03029649	     -3.49107893	     -2.98207090	    -28.72636877	     -1.87310175	     -6.01669358	     18.78629511	     -6.73068422	      8.40229882	     -8.10520543	     -2.84324207	      9.60864146	     -3.67947132	      8.83384147	     -1.63027548	     -3.30485748	     -4.58753692
      4.05500000	     -5.33458475	      3.41222827	     -2.49518195	     -1.31730013	     -0.01063846	     -0.29458662	     32.84129812	     -3.33357539	     -3.27567442	    -26.85726882	     -2.08147084	     -5.38277689	     18.55148647	     -7.17986993	      8.25174765	     -8.22632246	     -2.96534910	      9.86704655	     -3.48105568	      9.09019370	     -1.83268483	     -3.13350703	     -4.72069441
      4.06000000	     -5.23462717	      3.24863059	     -2.41140442	     -1.31138535	     -0.01129808	     -0.29464617	     32.60445212	     -3.17872001	     -3.62576729	    -24.95682812	     -2.29134282	     -4.62177158	     18.38129848	     -7.62214299	      8.08492480	     -8.34969120	     -3.11724881	     10.12565749	     -3.27912408	      9.31896080	     -2.04282595	     -2.95241938	     -4.83789963
      4.06500000	     -5.12589154	      3.07917060	     -2.33334129	     -1.30542158	     -0.01194980	     -0.29466288	     32.31247403	     -3.02611321	     -4.02804056	    -23.02782796	     -2.49113116	     -3.72680161	     18.29048949	     -8.06909668	      7.90216633	     -8.46729432	     -3.28545480	     10.37412908	     -3.05288300	      9.53240068	     -2.25377046	     -2.76773498	     -4.94611985
      4.07000000	     -5.02851580	      2.91818116	     -2.25516071	     -1.29944447	     -0.01264810	     -0.29466491	     31.99662106	     -2.89556601	     -4.53325823	    -21.07915273	     -2.67610480	     -2.67734968	     18.30750600	     -8.47625804	      7.72128656	     -8.57745857	     -3.50917550	     10.63770355	     -2.85454604	      9.71347707	     -2.45365788	     -2.58962648	     -5.02008472
      4.07500000	     -4.94382625	      2.76855639	     -2.19017294	     -1.29338920	     -0.01338810	     -0.29460974	     31.66810679	     -2.77724059	     -5.13882567	    -19.13950123	     -2.87710452	     -1.46846935	     18.42386844	     -8.87099929	      7.54257919	     -8.65419333	     -3.74253898	     10.88697484	     -2.64734694	      9.85917745	     -2.62535873	     -2.42640882	     -5.05116064
      4.08000000	     -4.78779979	      2.62133897	     -2.05838019	     -1.28723517	     -0.01408810	     -0.29458874	     31.19166688	     -2.69906012	     -5.81979129	    -17.16749565	     -3.00374045	     -0.10456572	     18.76000049	     -9.32989465	      7.35233737	     -8.73012567	     -4.01394105	     11.15067083	     -2.39397054	     10.01114847	     -2.86261044	     -2.26879045	     -5.17432756
      4.08500000	     -4.63395075	      2.47641716	     -1.93256654	     -1.28092667	     -0.01480131	     -0.29448614	     30.68295407	     -2.61540246	     -6.61113137	    -15.20427751	     -3.17909489	      1.38162216	     19.40401772	     -9.80577416	      7.14977785	     -8.75962926	     -4.26948849	     11.37236309	     -2.10963779	     10.15674519	     -3.07129889	     -2.12195877	     -5.28073102
      4.09000000	     -4.49742460	      2.33796005	     -1.80076746	     -1.27462835	     -0.01556885	     -0.29435582	     30.19686014	     -2.53468105	     -7.51845478	    -13.31888453	     -3.34460141	      3.01894067	     20.17937804	    -10.21460304	      6.94265131	     -8.78557179	     -4.61961414	     11.62448132	     -1.87205462	     10.29179163	     -3.26719029	     -1.97846221	     -5.33565189
      4.09500000	     -4.35196727	      2.19969662	     -1.65014640	     -1.26818660	     -0.01631565	     -0.29417746	     29.68040268	     -2.45027476	     -8.51653179	    -11.49122718	     -3.52319665	      4.75780761	     21.25221885	    -10.64767169	      6.71989731	     -8.77186365	     -4.95793162	     11.83239138	     -1.59859140	     10.42164590	     -3.45054944	     -1.84219766	     -5.41862619
      4.10000000	     -4.27750723	      2.09300854	     -1.51067198	     -1.26161220	     -0.01716290	     -0.29398780	     29.21218233	     -2.37607884	     -9.63112840	     -9.55232475	     -4.48700206	      6.19390519	     25.43595298	    -11.02690202	      6.53464477	     -8.57030868	     -5.25522246	     11.87687053	     -1.61287666	     10.61351599	     -3.53464996	     -1.73179241	     -5.45443155
      4.10500000	     -4.22491885	      1.95996317	     -1.39345663	     -1.25505571	     -0.01797967	     -0.29358961	     28.84957431	     -2.22661397	    -10.60743088	     -8.04711070	     -4.47223034	      8.03046498	     25.76033635	    -11.30970259	      6.28603226	     -8.66040896	     -5.70354932	     12.12470641	     -1.18835156	     10.71395782	     -3.60127028	     -1.61289474	     -5.46556129
      4.11000000	     -4.14834856	      1.80914389	     -1.25651989	     -1.24841330	     -0.01873597	     -0.29319612	     28.46825459	     -2.05651390	    -11.62022563	     -6.66908264	     -4.50644785	      9.80620522	     26.33072973	    -11.62628187	      6.01165633	     -8.62654566	     -6.14397668	     12.27682283	     -0.89212367	     10.81505827	     -3.68271011	     -1.47375802	     -5.49422564
      4.11500000	     -4.16511204	      1.70541412	     -1.10784738	     -1.24168731	     -0.01958227	     -0.29283109	     28.21324482	     -1.92894597	    -12.72952109	     -5.35839907	     -4.98799082	     11.38202233	     28.79781601	    -11.84418825	      5.78895498	     -8.41558023	     -6.57573469	     12.27346367	     -0.84025000	     10.97936143	     -3.65262548	     -1.37531734	     -5.52225380
